<svg id="Layer_2" data-name="Layer 2" xmlns="http://www.w3.org/2000/svg" viewBox="0 0 58.21 42.38"><defs><style>.cls-1{opacity:0.5;}.cls-2{fill:#919191;}</style></defs><g class="cls-1"><path class="cls-2" d="M26.56,15A11.18,11.18,0,0,0,26,12.1a.09.09,0,0,0,0,0h0A12.45,12.45,0,0,0,14.43,3.87a12.26,12.26,0,0,0-12.12,12,12.1,12.1,0,0,0,12.12,12,11.79,11.79,0,0,0,4.1-.76c-.18,1.76-1.16,5.75-6,10.06a2.54,2.54,0,0,0-.4,3.3,2.24,2.24,0,0,0,3,.69C19.32,38.64,29.25,30.89,26.56,15Z"/><path class="cls-2" d="M54.9,15a11.18,11.18,0,0,0-.61-2.89.09.09,0,0,0,0,0h0A12.45,12.45,0,0,0,42.77,3.87a12.26,12.26,0,0,0-12.12,12,12.1,12.1,0,0,0,12.12,12,11.79,11.79,0,0,0,4.1-.76c-.18,1.76-1.16,5.75-6,10.06a2.54,2.54,0,0,0-.4,3.3,2.24,2.24,0,0,0,3,.69C47.66,38.64,57.59,30.89,54.9,15Z"/></g></svg>