<svg id="Layer_2" data-name="Layer 2" xmlns="http://www.w3.org/2000/svg" viewBox="0 0 58.21 42.38"><defs><style>.cls-1{opacity:0.5;}.cls-2{fill:#919191;}</style></defs><g class="cls-1"><path class="cls-2" d="M31.1,15a11.18,11.18,0,0,1,.61-2.89.09.09,0,0,1,0,0h0A12.45,12.45,0,0,1,43.23,3.87a12.26,12.26,0,0,1,12.12,12,12.1,12.1,0,0,1-12.12,12,11.74,11.74,0,0,1-4.1-.76c.18,1.76,1.16,5.75,6,10.06a2.53,2.53,0,0,1,.41,3.3,2.24,2.24,0,0,1-3,.69C38.34,38.64,28.41,30.89,31.1,15Z"/><path class="cls-2" d="M2.76,15a11.18,11.18,0,0,1,.61-2.89.09.09,0,0,1,0,0h0A12.45,12.45,0,0,1,14.89,3.87,12.26,12.26,0,0,1,27,15.83a12.1,12.1,0,0,1-12.12,12,11.74,11.74,0,0,1-4.1-.76c.18,1.76,1.16,5.75,6,10.06a2.53,2.53,0,0,1,.41,3.3,2.24,2.24,0,0,1-3,.69C10,38.64.07,30.89,2.76,15Z"/></g></svg>