<svg id="Layer_1" data-name="Layer 1" xmlns="http://www.w3.org/2000/svg" viewBox="0 0 250 100"><defs><style>.cls-1{fill:#f7d800;}.cls-2{fill:#ee751b;}</style></defs><polygon class="cls-1" points="93.49 86.15 88.16 95.42 45.37 95.42 50.72 86.15 56.05 76.9 61.4 67.63 66.75 58.38 72.1 49.11 77.44 39.84 77.45 39.84 82.81 49.11 77.45 58.38 72.1 67.63 66.75 76.9 61.42 86.15 82.81 86.15 88.14 76.9 88.16 76.9 93.49 86.15"/><polygon class="cls-1" points="72.1 30.59 66.77 39.84 66.75 39.84 66.75 39.86 61.42 49.11 61.4 49.11 56.07 39.84 61.4 30.59 56.05 21.32 50.72 30.59 45.37 39.84 40.02 49.11 45.35 58.38 45.37 58.38 50.7 67.63 50.72 67.65 45.37 76.9 40.03 86.15 40 86.15 40.02 86.17 34.67 95.42 2.58 95.42 7.93 86.15 13.28 76.9 18.63 67.63 29.32 67.63 23.97 76.9 18.63 86.15 29.32 86.15 34.67 76.9 40.02 67.63 34.67 58.38 29.32 49.11 34.67 39.86 34.67 39.84 40.02 30.59 40.02 30.57 45.37 21.32 50.7 12.07 56.05 2.8 61.4 12.07 66.75 21.32 72.1 30.59"/><path class="cls-2" d="M125.49,30.26v-.15a2.45,2.45,0,0,0-2.43-2.43H112.27a2.45,2.45,0,0,0-2.43,2.43v.15a2.45,2.45,0,0,0,2.43,2.43h9.58A8.35,8.35,0,0,1,128,35.43c.11.11.19.23.3.34a8.4,8.4,0,0,1-6.49,13.72h-8.32a8.4,8.4,0,0,1-8.4-8.4h4.75a3.65,3.65,0,0,0,3.65,3.65h8.32a3.65,3.65,0,1,0,0-7.3h-9.58a7.13,7.13,0,0,1-5-2,6.8,6.8,0,0,1-.91-1.14,7,7,0,0,1-1.25-4.06v-.16a7.17,7.17,0,0,1,7.14-7.18h10.79a7.2,7.2,0,0,1,7.18,7.18v.16Z"/><path class="cls-2" d="M159.69,36.19a13.3,13.3,0,1,1-13.29-13.3A13.31,13.31,0,0,1,159.69,36.19Zm-4.75,0a8.55,8.55,0,1,0-8.54,8.55A8.56,8.56,0,0,0,154.94,36.19Z"/><path class="cls-2" d="M184.47,44.78v4.75H171a8.25,8.25,0,0,1-3.72-.88,8.42,8.42,0,0,1-3.84-3.87,8.28,8.28,0,0,1-.87-3.73V22.93h4.75V41.51a3.78,3.78,0,0,0,3.23,3.23Z"/><path class="cls-2" d="M205.75,22.89l-2.43,4.75L192.19,49.49,181.05,27.64l-2.43-4.75h5.32l2.43,4.75L192.19,39,198,27.64l2.43-4.75Z"/><path class="cls-2" d="M211.15,30.07v2.47h17.1v4.75h-17.1v5a2.45,2.45,0,0,0,2.43,2.43H233v4.75H213.58a7.17,7.17,0,0,1-7.14-7.18V30.07a7.17,7.17,0,0,1,7.14-7.18H233v4.75H213.58A2.45,2.45,0,0,0,211.15,30.07Z"/><path class="cls-2" d="M117,72.58v2.75h-7.81a4.8,4.8,0,0,1-2.16-.5,4.89,4.89,0,0,1-2.22-2.25,4.8,4.8,0,0,1-.51-2.16V59.93H107V70.69a2.19,2.19,0,0,0,1.87,1.87Z"/><path class="cls-2" d="M119.19,75.31V59.91h2.75v15.4Z"/><path class="cls-2" d="M139.51,59.93v2.75H133.2V75.33h-2.75V62.68h-6.32V59.93Z"/><path class="cls-2" d="M141.74,75.31V59.91h2.75v15.4Z"/><path class="cls-2" d="M149.44,67.61a5,5,0,0,0,4.95,5h5v-3h-5V66.86h7.7v8.45h-7.7a7.7,7.7,0,1,1,0-15.4h7.7v2.75h-7.7A5,5,0,0,0,149.44,67.61Z"/><path class="cls-2" d="M179.14,75.31h-3.08l-1.41-2.75L171.28,66l-3.36,6.6-1.41,2.75h-3.08l1.4-2.75,6.45-12.65,6.45,12.65Z"/><path class="cls-2" d="M191.48,59.93v2.75h-6.32V75.33h-2.75V62.68H176.1V59.93Z"/><path class="cls-2" d="M193.7,75.31V59.91h2.75v15.4Z"/><path class="cls-2" d="M213.5,67.61a7.7,7.7,0,1,1-7.7-7.7A7.71,7.71,0,0,1,213.5,67.61Zm-2.75,0a4.95,4.95,0,1,0-4.95,5A5,5,0,0,0,210.75,67.61Z"/><path class="cls-2" d="M230.55,59.93v15.4l-2.75-2.11-9.9-7.64v9.75h-2.75V60l2.75,2.12,9.9,7.63V59.91Z"/></svg>