<svg id="Layer_1" data-name="Layer 1" xmlns="http://www.w3.org/2000/svg" viewBox="0 0 100 100"><defs><style>.cls-1{fill:#201f46;}</style></defs><polygon class="cls-1" points="95.45 87.04 90.12 96.31 47.33 96.31 52.68 87.04 58.02 77.79 63.37 68.52 68.72 59.27 74.07 50 79.4 40.73 79.42 40.73 84.77 50 79.42 59.27 74.07 68.52 68.72 77.79 63.38 87.04 84.77 87.04 90.1 77.79 90.12 77.79 95.45 87.04"/><polygon class="cls-1" points="74.07 31.48 68.73 40.73 68.72 40.73 68.72 40.75 63.38 50 63.37 50 58.03 40.73 63.37 31.48 58.02 22.21 52.68 31.48 47.33 40.73 41.98 50 47.32 59.27 47.33 59.27 52.67 68.52 52.68 68.54 47.33 77.79 42 87.04 41.97 87.04 41.98 87.06 36.63 96.31 4.55 96.31 9.9 87.04 15.25 77.79 20.6 68.52 31.28 68.52 25.93 77.79 20.6 87.04 31.28 87.04 36.63 77.79 41.98 68.52 36.63 59.27 31.28 50 36.63 40.75 36.63 40.73 41.98 31.48 41.98 31.46 47.33 22.21 52.67 12.96 58.02 3.69 63.37 12.96 68.72 22.21 74.07 31.48"/></svg>