<svg id="Layer_1" data-name="Layer 1" xmlns="http://www.w3.org/2000/svg" viewBox="0 0 16 16"><defs><style>.cls-1{fill:#f7d800;}</style></defs><polygon class="cls-1" points="15.55 14.15 14.67 15.7 7.56 15.7 8.45 14.15 9.33 12.62 10.22 11.08 11.11 9.54 12 8 12.89 6.46 12.89 6.46 13.78 8 12.89 9.54 12 11.08 11.11 12.62 10.22 14.15 13.78 14.15 14.66 12.62 14.67 12.62 15.55 14.15"/><polygon class="cls-1" points="12 4.92 11.11 6.46 11.11 6.46 11.11 6.46 10.22 8 10.22 8 9.34 6.46 10.22 4.92 9.33 3.38 8.45 4.92 7.56 6.46 6.67 8 7.55 9.54 7.56 9.54 8.44 11.08 8.45 11.08 7.56 12.62 6.67 14.15 6.67 14.15 6.67 14.16 5.78 15.7 0.45 15.7 1.34 14.15 2.23 12.62 3.11 11.08 4.89 11.08 4 12.62 3.11 14.15 4.89 14.15 5.78 12.62 6.67 11.08 5.78 9.54 4.89 8 5.78 6.46 5.78 6.46 6.67 4.92 6.67 4.92 7.56 3.38 8.44 1.84 9.33 0.3 10.22 1.84 11.11 3.38 12 4.92"/></svg>